# xmcd
#
# Track frame offsets:
#	150
#	9635
#	22205
#	36067
#	48545
#	60762
#	72570
#	83867
#	96470
#	108355
#	128942
#	144997
#	156472
#	171242
#
# Disc length: 2430
#
# Revision: 1
# Processed by: cddbd v1.5.1PL0 Copyright (c) Steve Scherf et al.
# Submitted via: FreeRIP 2.70 
# Normalized: r0:TDELIM( - )
#
DISCID=c4097c0e
DTITLE=Various Artist - Easy Soul
DYEAR=1994
DGENRE=Soul
TTITLE0=The Drifters - Saturday night at the movies
TTITLE1=Mary Wells - You beat me to the punch
TTITLE2=Ike and Tina Turner - It's gonna work out fine
TTITLE3=Jerry Butler - He will break your heart
TTITLE4=The Platters - (You've got) that magic touch
TTITLE5=The Tams - Hey girl don't bother me
TTITLE6=Mary Wells - The one who really loves you
TTITLE7=Dee Clark - Raindrops
TTITLE8=The Tams - What kind of fool
TTITLE9=The Tymes - After the love has gone
TTITLE10=Clarence Carter - Lovely day
TTITLE11=Lee Dorsey - Working in a coal mine
TTITLE12=The Platters - The great pretender
TTITLE13=The Tymes - My babe
EXTD=SLAM 0007
EXTT0=
EXTT1=
EXTT2=
EXTT3=
EXTT4=
EXTT5=
EXTT6=
EXTT7=
EXTT8=
EXTT9=
EXTT10=
EXTT11=
EXTT12=
EXTT13=
PLAYORDER=
